<mxfile host="app.diagrams.net" modified="2024-05-22T15:55:42.447Z" agent="Mozilla/5.0 (X11; Ubuntu; Linux x86_64; rv:125.0) Gecko/20100101 Firefox/125.0" etag="Ht2-tWbrYTVdvhHmnnwU" version="24.4.6" type="device">
  <diagram id="C5RBs43oDa-KdzZeNtuy" name="Page-1">
    <mxGraphModel dx="1091" dy="636" grid="1" gridSize="10" guides="1" tooltips="1" connect="1" arrows="1" fold="1" page="1" pageScale="1" pageWidth="827" pageHeight="1169" math="0" shadow="0">
      <root>
        <mxCell id="WIyWlLk6GJQsqaUBKTNV-0" />
        <mxCell id="WIyWlLk6GJQsqaUBKTNV-1" parent="WIyWlLk6GJQsqaUBKTNV-0" />
        <mxCell id="dV1F0pK1ANhju9aSg0lZ-2" style="edgeStyle=orthogonalEdgeStyle;rounded=0;orthogonalLoop=1;jettySize=auto;html=1;entryX=0.5;entryY=0;entryDx=0;entryDy=0;" edge="1" parent="WIyWlLk6GJQsqaUBKTNV-1" source="WIyWlLk6GJQsqaUBKTNV-3" target="dV1F0pK1ANhju9aSg0lZ-0">
          <mxGeometry relative="1" as="geometry" />
        </mxCell>
        <mxCell id="dV1F0pK1ANhju9aSg0lZ-30" style="edgeStyle=orthogonalEdgeStyle;rounded=0;orthogonalLoop=1;jettySize=auto;html=1;dashed=1;dashPattern=8 8;" edge="1" parent="WIyWlLk6GJQsqaUBKTNV-1" source="WIyWlLk6GJQsqaUBKTNV-3" target="dV1F0pK1ANhju9aSg0lZ-10">
          <mxGeometry relative="1" as="geometry" />
        </mxCell>
        <mxCell id="WIyWlLk6GJQsqaUBKTNV-3" value="&lt;div&gt;Inicio&lt;/div&gt;" style="rounded=1;whiteSpace=wrap;html=1;fontSize=12;glass=0;strokeWidth=1;shadow=0;fillColor=#d5e8d4;strokeColor=#82b366;" parent="WIyWlLk6GJQsqaUBKTNV-1" vertex="1">
          <mxGeometry x="160" y="80" width="120" height="40" as="geometry" />
        </mxCell>
        <mxCell id="dV1F0pK1ANhju9aSg0lZ-4" style="edgeStyle=orthogonalEdgeStyle;rounded=0;orthogonalLoop=1;jettySize=auto;html=1;entryX=0.5;entryY=0;entryDx=0;entryDy=0;" edge="1" parent="WIyWlLk6GJQsqaUBKTNV-1" source="dV1F0pK1ANhju9aSg0lZ-0" target="dV1F0pK1ANhju9aSg0lZ-3">
          <mxGeometry relative="1" as="geometry" />
        </mxCell>
        <mxCell id="dV1F0pK1ANhju9aSg0lZ-0" value="Definimos una lista de archivos vacia" style="rounded=0;whiteSpace=wrap;html=1;" vertex="1" parent="WIyWlLk6GJQsqaUBKTNV-1">
          <mxGeometry x="170" y="170" width="120" height="60" as="geometry" />
        </mxCell>
        <mxCell id="dV1F0pK1ANhju9aSg0lZ-6" style="edgeStyle=orthogonalEdgeStyle;rounded=0;orthogonalLoop=1;jettySize=auto;html=1;entryX=0.5;entryY=0;entryDx=0;entryDy=0;" edge="1" parent="WIyWlLk6GJQsqaUBKTNV-1" source="dV1F0pK1ANhju9aSg0lZ-3" target="dV1F0pK1ANhju9aSg0lZ-5">
          <mxGeometry relative="1" as="geometry" />
        </mxCell>
        <mxCell id="dV1F0pK1ANhju9aSg0lZ-29" style="edgeStyle=orthogonalEdgeStyle;rounded=0;orthogonalLoop=1;jettySize=auto;html=1;dashed=1;dashPattern=8 8;" edge="1" parent="WIyWlLk6GJQsqaUBKTNV-1" source="dV1F0pK1ANhju9aSg0lZ-3" target="dV1F0pK1ANhju9aSg0lZ-7">
          <mxGeometry relative="1" as="geometry" />
        </mxCell>
        <mxCell id="dV1F0pK1ANhju9aSg0lZ-3" value="&lt;div&gt;Recorrer el directorio y subdirectorios mediante os.walk&lt;/div&gt;&lt;div&gt;(ruta, subdirectorios y ficheros)&lt;br&gt;&lt;/div&gt;" style="rounded=0;whiteSpace=wrap;html=1;" vertex="1" parent="WIyWlLk6GJQsqaUBKTNV-1">
          <mxGeometry x="180" y="270" width="140" height="80" as="geometry" />
        </mxCell>
        <mxCell id="dV1F0pK1ANhju9aSg0lZ-9" style="edgeStyle=orthogonalEdgeStyle;rounded=0;orthogonalLoop=1;jettySize=auto;html=1;entryX=0.5;entryY=0;entryDx=0;entryDy=0;" edge="1" parent="WIyWlLk6GJQsqaUBKTNV-1" source="dV1F0pK1ANhju9aSg0lZ-5" target="dV1F0pK1ANhju9aSg0lZ-8">
          <mxGeometry relative="1" as="geometry" />
        </mxCell>
        <mxCell id="dV1F0pK1ANhju9aSg0lZ-5" value="Iterar cada archivo en la lista de ficheros" style="rounded=0;whiteSpace=wrap;html=1;" vertex="1" parent="WIyWlLk6GJQsqaUBKTNV-1">
          <mxGeometry x="180" y="390" width="120" height="60" as="geometry" />
        </mxCell>
        <mxCell id="dV1F0pK1ANhju9aSg0lZ-7" value="os.walk: &lt;br&gt;&lt;div class=&quot;QmZWSe&quot;&gt;&lt;div class=&quot;DHcWmd&quot;&gt;&lt;/div&gt;&lt;/div&gt;&lt;pre dir=&quot;ltr&quot; data-ved=&quot;2ahUKEwjAvLT-yaGGAxVAgoQIHSBvBYgQ3ewLegQIBRAT&quot; aria-label=&quot;Texto traducido&quot; style=&quot;text-align:left&quot; id=&quot;tw-target-text&quot; data-placeholder=&quot;Traducción&quot; class=&quot;tw-data-text tw-text-large tw-ta&quot;&gt;&lt;span lang=&quot;es&quot; class=&quot;Y2IQFc&quot;&gt;Para cada directorio en el árbol &lt;br&gt;de directorios con raíz en la parte &lt;br&gt;superior (incluido el propio superior, &lt;br&gt;pero excluyendo &#39;.&#39; y &#39;..&#39;), &lt;br&gt;se obtiene una tupla de 3&lt;/span&gt;&lt;/pre&gt;" style="rounded=0;whiteSpace=wrap;html=1;fillColor=#e1d5e7;strokeColor=#9673a6;" vertex="1" parent="WIyWlLk6GJQsqaUBKTNV-1">
          <mxGeometry x="400" y="230" width="334" height="130" as="geometry" />
        </mxCell>
        <mxCell id="dV1F0pK1ANhju9aSg0lZ-12" value="" style="edgeStyle=orthogonalEdgeStyle;rounded=0;orthogonalLoop=1;jettySize=auto;html=1;" edge="1" parent="WIyWlLk6GJQsqaUBKTNV-1" source="dV1F0pK1ANhju9aSg0lZ-8" target="dV1F0pK1ANhju9aSg0lZ-11">
          <mxGeometry relative="1" as="geometry" />
        </mxCell>
        <mxCell id="dV1F0pK1ANhju9aSg0lZ-15" style="edgeStyle=orthogonalEdgeStyle;rounded=0;orthogonalLoop=1;jettySize=auto;html=1;entryX=1;entryY=0.5;entryDx=0;entryDy=0;" edge="1" parent="WIyWlLk6GJQsqaUBKTNV-1" source="dV1F0pK1ANhju9aSg0lZ-8" target="dV1F0pK1ANhju9aSg0lZ-5">
          <mxGeometry relative="1" as="geometry">
            <mxPoint x="500" y="550" as="targetPoint" />
            <Array as="points">
              <mxPoint x="460" y="550" />
              <mxPoint x="460" y="420" />
            </Array>
          </mxGeometry>
        </mxCell>
        <mxCell id="dV1F0pK1ANhju9aSg0lZ-8" value="&lt;div&gt;Comprobar si cumplen con el filtro&lt;/div&gt;&lt;div&gt;(.stream por defecto)&lt;br&gt;&lt;/div&gt;" style="rhombus;whiteSpace=wrap;html=1;" vertex="1" parent="WIyWlLk6GJQsqaUBKTNV-1">
          <mxGeometry x="130" y="490" width="220" height="120" as="geometry" />
        </mxCell>
        <mxCell id="dV1F0pK1ANhju9aSg0lZ-10" value="Recibimos un directorio y opcional un filtro" style="rounded=0;whiteSpace=wrap;html=1;fillColor=#f8cecc;strokeColor=#b85450;" vertex="1" parent="WIyWlLk6GJQsqaUBKTNV-1">
          <mxGeometry x="390" y="80" width="120" height="60" as="geometry" />
        </mxCell>
        <mxCell id="dV1F0pK1ANhju9aSg0lZ-17" value="" style="edgeStyle=orthogonalEdgeStyle;rounded=0;orthogonalLoop=1;jettySize=auto;html=1;" edge="1" parent="WIyWlLk6GJQsqaUBKTNV-1" source="dV1F0pK1ANhju9aSg0lZ-11" target="dV1F0pK1ANhju9aSg0lZ-16">
          <mxGeometry relative="1" as="geometry" />
        </mxCell>
        <mxCell id="dV1F0pK1ANhju9aSg0lZ-11" value="Construir la ruta completa mediante os.path.join" style="whiteSpace=wrap;html=1;" vertex="1" parent="WIyWlLk6GJQsqaUBKTNV-1">
          <mxGeometry x="180" y="670" width="120" height="60" as="geometry" />
        </mxCell>
        <mxCell id="dV1F0pK1ANhju9aSg0lZ-13" value="Si" style="text;html=1;align=center;verticalAlign=middle;whiteSpace=wrap;rounded=0;" vertex="1" parent="WIyWlLk6GJQsqaUBKTNV-1">
          <mxGeometry x="230" y="620" width="60" height="30" as="geometry" />
        </mxCell>
        <mxCell id="dV1F0pK1ANhju9aSg0lZ-14" value="No" style="text;html=1;align=center;verticalAlign=middle;whiteSpace=wrap;rounded=0;" vertex="1" parent="WIyWlLk6GJQsqaUBKTNV-1">
          <mxGeometry x="370" y="510" width="60" height="30" as="geometry" />
        </mxCell>
        <mxCell id="dV1F0pK1ANhju9aSg0lZ-19" value="" style="edgeStyle=orthogonalEdgeStyle;rounded=0;orthogonalLoop=1;jettySize=auto;html=1;" edge="1" parent="WIyWlLk6GJQsqaUBKTNV-1" source="dV1F0pK1ANhju9aSg0lZ-16" target="dV1F0pK1ANhju9aSg0lZ-18">
          <mxGeometry relative="1" as="geometry" />
        </mxCell>
        <mxCell id="dV1F0pK1ANhju9aSg0lZ-16" value="&lt;div&gt;Remplazar los &quot;\&quot; por &quot;/&quot;&lt;/div&gt;&lt;div&gt;(Necesario en Windows para la funcion open)&lt;br&gt;&lt;/div&gt;" style="whiteSpace=wrap;html=1;" vertex="1" parent="WIyWlLk6GJQsqaUBKTNV-1">
          <mxGeometry x="160" y="780" width="160" height="70" as="geometry" />
        </mxCell>
        <mxCell id="dV1F0pK1ANhju9aSg0lZ-20" style="edgeStyle=orthogonalEdgeStyle;rounded=0;orthogonalLoop=1;jettySize=auto;html=1;entryX=0;entryY=0.5;entryDx=0;entryDy=0;exitX=0.032;exitY=0.555;exitDx=0;exitDy=0;exitPerimeter=0;" edge="1" parent="WIyWlLk6GJQsqaUBKTNV-1" source="dV1F0pK1ANhju9aSg0lZ-21" target="dV1F0pK1ANhju9aSg0lZ-5">
          <mxGeometry relative="1" as="geometry">
            <Array as="points">
              <mxPoint x="203" y="1105" />
              <mxPoint x="70" y="1105" />
              <mxPoint x="70" y="420" />
            </Array>
          </mxGeometry>
        </mxCell>
        <mxCell id="dV1F0pK1ANhju9aSg0lZ-22" value="" style="edgeStyle=orthogonalEdgeStyle;rounded=0;orthogonalLoop=1;jettySize=auto;html=1;" edge="1" parent="WIyWlLk6GJQsqaUBKTNV-1" source="dV1F0pK1ANhju9aSg0lZ-18" target="dV1F0pK1ANhju9aSg0lZ-21">
          <mxGeometry relative="1" as="geometry" />
        </mxCell>
        <mxCell id="dV1F0pK1ANhju9aSg0lZ-18" value="Agregar el archivo a la lista de archivos" style="whiteSpace=wrap;html=1;" vertex="1" parent="WIyWlLk6GJQsqaUBKTNV-1">
          <mxGeometry x="180" y="935" width="120" height="60" as="geometry" />
        </mxCell>
        <mxCell id="dV1F0pK1ANhju9aSg0lZ-27" value="" style="edgeStyle=orthogonalEdgeStyle;rounded=0;orthogonalLoop=1;jettySize=auto;html=1;" edge="1" parent="WIyWlLk6GJQsqaUBKTNV-1" source="dV1F0pK1ANhju9aSg0lZ-21" target="dV1F0pK1ANhju9aSg0lZ-26">
          <mxGeometry relative="1" as="geometry" />
        </mxCell>
        <mxCell id="dV1F0pK1ANhju9aSg0lZ-21" value="¿Quedan archivos?" style="rhombus;whiteSpace=wrap;html=1;" vertex="1" parent="WIyWlLk6GJQsqaUBKTNV-1">
          <mxGeometry x="200" y="1065" width="80" height="80" as="geometry" />
        </mxCell>
        <mxCell id="dV1F0pK1ANhju9aSg0lZ-24" value="Si" style="text;html=1;align=center;verticalAlign=middle;whiteSpace=wrap;rounded=0;" vertex="1" parent="WIyWlLk6GJQsqaUBKTNV-1">
          <mxGeometry x="100" y="1060" width="60" height="30" as="geometry" />
        </mxCell>
        <mxCell id="dV1F0pK1ANhju9aSg0lZ-26" value="Devolver la lista de archivos" style="whiteSpace=wrap;html=1;" vertex="1" parent="WIyWlLk6GJQsqaUBKTNV-1">
          <mxGeometry x="180" y="1235" width="120" height="60" as="geometry" />
        </mxCell>
        <mxCell id="dV1F0pK1ANhju9aSg0lZ-28" value="No" style="text;html=1;align=center;verticalAlign=middle;whiteSpace=wrap;rounded=0;" vertex="1" parent="WIyWlLk6GJQsqaUBKTNV-1">
          <mxGeometry x="260" y="1169" width="60" height="30" as="geometry" />
        </mxCell>
      </root>
    </mxGraphModel>
  </diagram>
</mxfile>
